<svg width="300" height="300" viewBox="0 0 300 300" fill="none" xmlns="http://www.w3.org/2000/svg">
<mask id="mask0_23_110" style="mask-type:alpha" maskUnits="userSpaceOnUse" x="23" y="24" width="255" height="252">
<rect x="23" y="24" width="255" height="252" fill="#D9D9D9"/>
</mask>
<g mask="url(#mask0_23_110)">
<path d="M62.5781 251.063C55.663 251.063 49.7723 248.659 44.9061 243.852C40.0416 239.043 37.6094 233.221 37.6094 226.388V108.263C37.6094 101.357 40.0416 95.4744 44.9061 90.6147C49.7723 85.7549 55.663 83.325 62.5781 83.325H101.891V57.075C101.891 50.425 104.324 44.65 109.19 39.75C114.054 34.85 119.944 32.4 126.859 32.4H174.141C181.056 32.4 186.946 34.85 191.813 39.75C196.677 44.65 199.109 50.425 199.109 57.075V83.325H238.422C245.41 83.325 251.362 85.7549 256.28 90.6147C261.197 95.4744 263.656 101.357 263.656 108.263V226.388C263.656 233.221 261.197 239.043 256.28 243.852C251.362 248.659 245.41 251.063 238.422 251.063H62.5781ZM126.859 83.325H174.141V57.075H126.859V83.325Z" fill="white"/>
</g>
</svg>
