<svg width="300" height="300" viewBox="0 0 300 300" fill="none" xmlns="http://www.w3.org/2000/svg">
<mask id="mask0_16_39" style="mask-type:alpha" maskUnits="userSpaceOnUse" x="23" y="24" width="255" height="252">
<rect x="23" y="24" width="255" height="252" fill="#D9D9D9"/>
</mask>
<g mask="url(#mask0_16_39)">
<path d="M55.9375 177.3C47.9687 177.3 41.2396 174.569 35.75 169.107C30.2604 163.646 27.5156 157.014 27.5156 149.213C27.5156 141.411 30.279 134.779 35.8058 129.318C41.3326 123.856 48.0431 121.125 55.9375 121.125V82.8C55.9375 78.6 57.5312 74.925 60.7188 71.775C63.9063 68.625 67.625 67.05 71.875 67.05H122.078C122.078 59.175 124.842 52.525 130.368 47.1C135.895 41.675 142.606 38.9625 150.5 38.9625C158.394 38.9625 165.105 41.6934 170.632 47.1552C176.158 52.6169 178.922 59.2485 178.922 67.05H229.125C233.375 67.05 237.094 68.625 240.281 71.775C243.469 74.925 245.063 78.6 245.063 82.8V121.125C253.031 121.125 259.76 123.856 265.25 129.318C270.74 134.779 273.484 141.411 273.484 149.213C273.484 157.014 270.721 163.646 265.194 169.107C259.667 174.569 252.957 177.3 245.063 177.3V234.788C245.063 238.988 243.469 242.663 240.281 245.813C237.094 248.963 233.375 250.538 229.125 250.538H71.875C67.625 250.538 63.9063 248.963 60.7188 245.813C57.5312 242.663 55.9375 238.988 55.9375 234.788V177.3ZM115.767 149.475C119.089 149.475 121.901 148.317 124.203 146C126.505 143.684 127.656 140.841 127.656 137.468C127.656 134.098 126.484 131.275 124.139 129C121.797 126.725 118.963 125.588 115.639 125.588C112.317 125.588 109.461 126.738 107.07 129.039C104.68 131.341 103.484 134.236 103.484 137.726C103.484 141.009 104.701 143.788 107.134 146.063C109.565 148.338 112.443 149.475 115.767 149.475ZM185.361 149.475C188.683 149.475 191.539 148.317 193.93 146C196.32 143.684 197.516 140.841 197.516 137.468C197.516 134.098 196.299 131.275 193.866 129C191.435 126.725 188.557 125.588 185.233 125.588C181.911 125.588 179.099 126.738 176.797 129.039C174.495 131.341 173.344 134.236 173.344 137.726C173.344 141.009 174.516 143.788 176.861 146.063C179.203 148.338 182.037 149.475 185.361 149.475ZM108.797 201.188H192.203V182.55H108.797V201.188Z" fill="white"/>
</g>
</svg>
