<svg width="300" height="300" viewBox="0 0 300 300" fill="none" xmlns="http://www.w3.org/2000/svg">
<mask id="mask0_18_49" style="mask-type:alpha" maskUnits="userSpaceOnUse" x="23" y="24" width="255" height="252">
<rect x="23" y="24" width="255" height="252" fill="#D9D9D9"/>
</mask>
<g mask="url(#mask0_18_49)">
<path d="M120.219 261.563L114.641 226.388C112.339 225.688 109.727 224.506 106.805 222.844C103.883 221.181 101.448 219.563 99.5 217.988L66.2969 233.213L35.4844 179.4L65.7656 157.613C65.5885 156.563 65.4557 155.294 65.3672 153.806C65.2786 152.319 65.2344 151.05 65.2344 150C65.2344 148.95 65.2786 147.681 65.3672 146.194C65.4557 144.706 65.5885 143.438 65.7656 142.388L35.4844 120.338L66.2969 67.05L100.031 82.0126C101.802 80.6126 104.104 79.125 106.937 77.55C109.771 75.975 112.339 74.8375 114.641 74.1375L120.219 38.175H180.781L186.359 73.875C188.661 74.75 191.273 75.9313 194.195 77.4188C197.117 78.9063 199.552 80.4376 201.5 82.0126L234.969 67.05L265.516 120.338L234.969 141.863C235.146 143.088 235.323 144.444 235.5 145.931C235.677 147.419 235.766 148.775 235.766 150C235.766 151.225 235.677 152.538 235.5 153.938C235.323 155.338 235.146 156.65 234.969 157.875L265.516 179.4L234.703 233.213L201.234 217.988C199.286 219.563 196.94 221.181 194.195 222.844C191.451 224.506 188.839 225.688 186.359 226.388L180.781 261.563H120.219ZM149.969 184.125C159.531 184.125 167.677 180.8 174.406 174.15C181.135 167.5 184.5 159.45 184.5 150C184.5 140.55 181.135 132.5 174.406 125.85C167.677 119.2 159.531 115.875 149.969 115.875C140.406 115.875 132.26 119.2 125.531 125.85C118.802 132.5 115.438 140.55 115.438 150C115.438 159.45 118.802 167.5 125.531 174.15C132.26 180.8 140.406 184.125 149.969 184.125Z" fill="white"/>
</g>
</svg>
