<svg width="300" height="300" viewBox="0 0 300 300" fill="none" xmlns="http://www.w3.org/2000/svg">
<mask id="mask0_23_100" style="mask-type:alpha" maskUnits="userSpaceOnUse" x="23" y="24" width="255" height="252">
<rect x="23" y="24" width="255" height="252" fill="#D9D9D9"/>
</mask>
<g mask="url(#mask0_23_100)">
<path d="M226.469 250.538C217.26 250.538 209.513 247.869 203.227 242.531C196.94 237.194 193 231.025 191.406 224.025H140.672C128.4 224.025 118.293 220.088 110.351 212.213C102.409 204.339 98.4375 194.321 98.4375 182.156C98.4375 170.169 102.409 160.238 110.351 152.363C118.293 144.488 128.4 140.55 140.672 140.55H161.125C167.801 140.55 173.322 138.388 177.687 134.064C182.052 129.739 184.234 124.271 184.234 117.657C184.234 111.044 182.052 105.594 177.687 101.306C173.322 97.0188 167.801 94.875 161.125 94.875H109.859C107.911 101.875 103.839 108.044 97.6406 113.381C91.4427 118.719 83.7396 121.388 74.5312 121.388C64.4517 121.388 55.8667 117.882 48.7763 110.872C41.6858 103.861 38.1406 95.3738 38.1406 85.4093C38.1406 75.4448 41.6858 66.9625 48.7763 59.9625C55.8667 52.9625 64.4517 49.4625 74.5312 49.4625C83.7396 49.4625 91.4427 52.1313 97.6406 57.4688C103.839 62.8063 107.911 68.975 109.859 75.975H161.125C173.344 75.975 183.438 79.9125 191.406 87.7875C199.375 95.6625 203.359 105.638 203.359 117.713C203.359 129.788 199.375 139.763 191.406 147.638C183.438 155.513 173.344 159.45 161.125 159.45H140.672C133.943 159.45 128.409 161.594 124.07 165.881C119.732 170.171 117.562 175.596 117.562 182.156C117.562 188.894 119.732 194.406 124.07 198.694C128.409 202.981 133.943 205.125 140.672 205.125H191.406C193.177 198.125 197.161 191.956 203.359 186.619C209.557 181.281 217.26 178.613 226.469 178.613C236.548 178.613 245.133 182.118 252.224 189.128C259.314 196.139 262.859 204.626 262.859 214.591C262.859 224.555 259.314 233.038 252.224 240.038C245.133 247.038 236.548 250.538 226.469 250.538ZM74.5312 99.6C78.6042 99.6 82.013 98.2438 84.7578 95.5313C87.5026 92.8188 88.875 89.45 88.875 85.425C88.875 81.4 87.5026 78.0313 84.7578 75.3188C82.013 72.6063 78.6042 71.25 74.5312 71.25C70.4583 71.25 67.0495 72.6063 64.3047 75.3188C61.5599 78.0313 60.1875 81.4 60.1875 85.425C60.1875 89.45 61.5599 92.8188 64.3047 95.5313C67.0495 98.2438 70.4583 99.6 74.5312 99.6Z" fill="white"/>
</g>
</svg>
