<svg width="300" height="300" viewBox="0 0 300 300" fill="none" xmlns="http://www.w3.org/2000/svg">
<mask id="mask0_16_35" style="mask-type:alpha" maskUnits="userSpaceOnUse" x="23" y="24" width="255" height="252">
<rect x="23" y="24" width="255" height="252" fill="#D9D9D9"/>
</mask>
<g mask="url(#mask0_16_35)">
<path d="M101.625 188.325L134.031 156.3L155.281 177.3L195.656 137.662V157.875H211.594V110.625H163.781V126.375H184.234L155.281 154.987L134.031 133.987L90.4688 177.3L101.625 188.325ZM73.2031 251.062C66.288 251.062 60.3973 248.659 55.5311 243.852C50.6666 239.043 48.2344 233.221 48.2344 226.387V73.6125C48.2344 66.707 50.6666 60.8244 55.5311 55.9646C60.3973 51.1049 66.288 48.675 73.2031 48.675H227.797C234.785 48.675 240.737 51.1049 245.655 55.9646C250.572 60.8244 253.031 66.707 253.031 73.6125V226.387C253.031 233.221 250.572 239.043 245.655 243.852C240.737 248.659 234.785 251.062 227.797 251.062H73.2031Z" fill="white"/>
</g>
</svg>
