<svg width="300" height="300" viewBox="0 0 300 300" fill="none" xmlns="http://www.w3.org/2000/svg">
<mask id="mask0_20_59" style="mask-type:alpha" maskUnits="userSpaceOnUse" x="23" y="24" width="255" height="252">
<rect x="23" y="24" width="255" height="252" fill="#D9D9D9"/>
</mask>
<g mask="url(#mask0_20_59)">
<path d="M19.8125 216.15V198.975C19.8125 191.25 23.7969 185.007 31.7656 180.245C39.7344 175.482 50.1274 173.1 62.9447 173.1H66.0312C66.9167 173.1 67.8906 173.157 68.9531 173.271C67.1823 176.832 65.8382 180.478 64.9209 184.209C64.0036 187.942 63.545 191.836 63.545 195.89V216.15H19.8125ZM83.5625 216.15V195.938C83.5625 189.813 85.1563 184.213 88.3438 179.138C91.5313 174.063 96.1354 169.688 102.156 166.013C108.177 162.338 115.286 159.538 123.483 157.613C131.682 155.688 140.663 154.725 150.426 154.725C160.378 154.725 169.408 155.688 177.517 157.613C185.627 159.538 192.736 162.338 198.844 166.013C204.865 169.688 209.469 174.063 212.656 179.138C215.844 184.213 217.438 189.813 217.438 195.938V216.15H83.5625ZM237.359 216.15V195.825C237.359 191.66 236.917 187.712 236.031 183.981C235.146 180.25 233.906 176.687 232.312 173.292C233.375 173.164 234.372 173.1 235.303 173.1H238.156C251.207 173.1 261.642 175.467 269.46 180.201C277.278 184.933 281.188 191.228 281.188 199.088V216.15H237.359ZM62.7853 166.013C57.1576 166.013 52.3516 164.015 48.3672 160.02C44.3828 156.024 42.3906 151.222 42.3906 145.611C42.3906 139.962 44.3934 135.169 48.3991 131.231C52.4065 127.294 57.2231 125.325 62.8491 125.325C68.5122 125.325 73.3802 127.297 77.4531 131.242C81.526 135.185 83.5625 139.994 83.5625 145.671C83.5625 151.182 81.5491 155.95 77.5222 159.975C73.4953 164 68.583 166.013 62.7853 166.013ZM238.098 166.013C232.47 166.013 227.664 164.015 223.68 160.02C219.695 156.024 217.703 151.222 217.703 145.611C217.703 139.962 219.706 135.169 223.712 131.231C227.719 127.294 232.536 125.325 238.162 125.325C243.825 125.325 248.693 127.297 252.766 131.242C256.839 135.185 258.875 139.994 258.875 145.671C258.875 151.182 256.862 155.95 252.835 159.975C248.808 164 243.896 166.013 238.098 166.013ZM150.63 147.113C140.855 147.113 132.546 143.732 125.701 136.97C118.859 130.206 115.438 121.994 115.438 112.334C115.438 102.62 118.859 94.4375 125.701 87.7875C132.546 81.1375 140.855 77.8125 150.63 77.8125C160.46 77.8125 168.74 81.1375 175.469 87.7875C182.198 94.4375 185.563 102.62 185.563 112.334C185.563 121.994 182.198 130.206 175.469 136.97C168.74 143.732 160.46 147.113 150.63 147.113Z" fill="white"/>
</g>
</svg>
