<svg width="144" height="39" viewBox="0 0 144 39" fill="none" xmlns="http://www.w3.org/2000/svg">
<path d="M27.7626 18.1806C28.0245 18.1806 28.2864 18.1806 28.5482 18.1806C28.7149 17.8234 28.7149 17.2996 28.5482 16.7044C28.3816 15.8235 28.1197 15.2283 27.5959 15.2997C27.0721 15.395 27.0721 16.0854 27.2388 16.9663C27.3102 17.4901 27.5007 17.9187 27.7626 18.1806Z" fill="black"/>
<path d="M23.1437 18.9661C23.5008 19.1328 23.7627 19.228 23.8341 19.1328C23.9294 19.0375 23.8341 18.9661 23.7389 18.7756C23.5722 18.4185 23.1199 18.1566 22.7866 17.99C21.9057 17.6328 20.9533 17.7281 20.1677 18.3471C19.9058 18.5138 19.6439 18.7756 19.7391 18.9661C19.7391 19.0613 19.8343 19.0613 19.9058 19.0613C20.0724 19.0613 20.8581 18.7042 21.739 18.6328C22.2628 18.609 22.7866 18.7994 23.1437 18.9661Z" fill="black"/>
<path d="M22.3579 19.3947C21.8341 19.49 21.5722 19.6566 21.4056 19.8233C21.2389 19.9899 21.1437 20.0852 21.1437 20.1804V20.2756H21.2389C21.3341 20.2756 21.596 20.1804 21.596 20.1804C22.2865 19.9185 22.7388 19.9185 23.1674 20.0138C23.4293 20.0138 23.5245 20.109 23.5959 20.0138C23.5959 20.0138 23.5959 19.9185 23.5959 19.8471C23.5721 19.5852 23.0483 19.3233 22.3579 19.3947Z" fill="black"/>
<path d="M22.6199 20.0138C22.7866 19.6567 22.7866 18.871 22.6199 18.2758C22.4533 17.3949 22.1914 16.8711 21.5724 16.8711C21.0486 16.9663 21.0486 17.6568 21.2152 18.6091C21.3105 19.2281 21.5724 19.5614 21.6438 19.8233C22.0961 20.5376 22.358 20.3471 22.6199 20.0138Z" fill="black"/>
<path d="M26.1911 20.9663C26.5483 21.133 26.8816 21.0615 27.072 20.7996C27.1673 20.5378 26.9768 20.1806 26.6435 20.014C26.2864 19.8473 25.9531 19.9187 25.7626 20.1806C25.5721 20.4425 25.834 20.7996 26.1911 20.9663Z" fill="black"/>
<path d="M28.3578 19.0615C28.0959 19.0615 27.834 19.3234 27.834 19.752C27.834 20.1091 28.0006 20.4424 28.3578 20.4424C28.6197 20.4424 28.8815 20.1805 28.8815 19.752C28.8101 19.3948 28.6197 19.0615 28.3578 19.0615Z" fill="black"/>
<path d="M9.90625 25.8466C9.81102 25.7514 9.73959 25.7514 9.64436 25.8466C9.54913 25.8466 9.4777 25.8466 9.38247 25.8466C9.21581 25.8466 9.02534 25.7514 8.95392 25.5847C8.88249 25.4181 8.85869 25.1562 8.95392 24.799L9.04915 24.6324C9.31104 24.1086 9.66817 23.3229 9.21581 22.5372C8.85869 21.9182 8.43014 21.5849 7.81112 21.4897C7.1921 21.3944 6.59689 21.6563 6.23977 22.1087C5.62075 22.7991 5.54933 23.68 5.62075 24.0134C5.62075 24.1086 5.71599 24.18 5.78741 24.18C5.88265 24.18 6.0493 24.0848 6.14454 23.8229V23.7277C6.14454 23.561 6.23977 23.3705 6.40643 23.1086C6.57309 22.8468 6.83498 22.6801 7.09687 22.6801C7.35876 22.5849 7.71589 22.6801 7.97778 22.8468C8.40633 23.1086 8.59679 23.6324 8.40633 24.1562C8.14444 24.4181 8.0492 24.8467 8.0492 25.299C8.14444 26.0847 8.66822 26.4418 9.09677 26.5132C9.52532 26.5132 9.88244 26.2513 9.88244 26.0847C9.97768 25.9418 9.90625 25.9418 9.90625 25.8466Z" fill="black"/>
<path d="M35.2383 24.3705C35.2383 24.2753 35.1431 23.942 34.9764 23.4182L34.6193 22.6325C35.2383 21.7516 35.2383 20.8945 35.1431 20.466C35.0478 19.9422 34.7859 19.4184 34.3574 18.8946C33.9288 18.3708 32.8813 17.847 31.5718 17.4899L30.8814 17.3233C30.8814 17.3233 30.8814 15.6567 30.7861 14.9662C30.7861 14.4424 30.6909 13.6568 30.429 12.8711C30.1671 11.8235 29.6434 10.8712 28.9529 10.2522C30.6909 8.41895 31.8337 6.32381 31.8337 4.5858C31.8337 1.27644 27.7387 0.228878 22.5961 2.32401L21.5485 2.75256C21.5485 2.75256 19.6439 0.847895 19.5486 0.847895C13.906 -4.19947 -4.11685 15.9186 1.62095 20.7993L2.83518 21.8468C2.47805 22.7277 2.40663 23.6801 2.47805 24.7276C2.64471 26.0371 3.35896 27.3466 4.38272 28.3941C5.43029 29.3465 6.81117 29.9655 8.21586 29.9655C10.4777 35.2033 15.6202 38.3222 21.6199 38.5127C28.072 38.6793 33.5479 35.6319 35.8097 30.2274C35.9764 29.8702 36.5954 28.1322 36.5954 26.5609C36.7382 24.9657 35.8573 24.3705 35.2383 24.3705ZM8.76345 28.4656C8.59679 28.4656 8.3349 28.5608 8.14443 28.4656C6.23977 28.3703 4.0494 26.6323 3.88274 24.5372C3.71609 22.2754 4.83508 20.5374 6.93021 20.085C7.1921 19.9898 7.45399 19.9898 7.81112 19.9898C8.95392 20.085 10.6919 20.9421 11.1205 23.4658C11.4538 25.8466 10.9538 28.1084 8.76345 28.4656ZM6.59689 18.7041C5.28744 18.966 4.16844 19.6565 3.4542 20.704C3.02565 20.3469 2.23997 19.6565 2.14474 19.3946C1.00194 17.2994 3.35896 13.133 5.02554 10.8474C9.02534 5.10959 15.3822 0.752662 18.263 1.51453C18.7868 1.68119 20.3581 3.51443 20.3581 3.51443C20.3581 3.51443 17.4059 5.18101 14.6917 7.4428C11.0252 10.1569 8.23967 14.252 6.59689 18.7041ZM27.1435 27.5846L27.2387 27.4894C27.2387 27.3942 27.1435 27.3942 27.1435 27.3942C27.1435 27.3942 24.096 27.8227 21.2152 26.7752C21.5723 25.7276 22.358 26.0847 23.6437 26.2514C25.9054 26.418 28.0006 26.0847 29.4767 25.6324C30.7861 25.2752 32.5242 24.4896 33.8336 23.4658C34.2622 24.4181 34.4526 25.5609 34.4526 25.5609C34.4526 25.5609 34.8098 25.4657 35.0716 25.6562C35.3335 25.8228 35.5002 26.18 35.4288 27.0609C35.1669 28.7989 34.3812 30.1083 33.2622 31.4178C32.5718 32.2035 31.5956 32.8939 30.5719 33.4177C30.0481 33.6796 29.4291 33.9415 28.8339 34.1081C24.1198 35.5842 19.4296 34.0129 17.9535 30.4416C17.8582 30.1798 17.6916 29.9179 17.6916 29.5607C17.0726 27.2037 17.5963 24.4181 19.3582 22.6801C19.4534 22.5849 19.5248 22.4182 19.5248 22.2516C19.5248 22.0849 19.4296 21.9897 19.3582 21.8945C18.7391 21.0135 16.6678 19.5374 17.0964 16.6566C17.3583 14.5615 19.1915 13.1806 20.8343 13.252H21.2628C21.9533 13.252 22.6675 13.4187 23.1675 13.4187C24.1198 13.4187 25.0722 13.3235 26.1197 12.4664C26.4768 12.2045 26.7387 11.9426 27.2625 11.8473C27.3577 11.8473 27.4292 11.7521 27.6911 11.8473C27.953 11.8473 28.2149 11.9426 28.3815 12.1092C29.2624 12.7282 29.3338 14.0139 29.4291 15.0615C29.4291 15.6805 29.5243 17.0614 29.5243 17.4185C29.6195 18.2994 29.7862 18.4661 30.31 18.6327C30.5719 18.7279 30.8338 18.7994 31.1909 18.8946C32.3337 19.2517 33.0241 19.5136 33.4527 19.9422C33.7146 20.2041 33.8098 20.466 33.8812 20.7279C34.0479 21.6802 33.0956 22.8944 30.7385 24.0372C28.1196 25.2514 25.0722 25.5133 22.9056 25.2514L22.1199 25.1562C20.3819 24.8943 19.4296 27.1561 20.4533 28.6322C21.1438 29.5845 22.977 30.2988 24.715 30.2988C28.9053 30.2988 32.1194 28.5608 33.2622 26.9894L33.3574 26.8228C33.4527 26.7275 33.3575 26.6561 33.2622 26.7275C32.3099 27.418 27.953 30.0369 23.3341 29.2512C23.3341 29.2512 22.8104 29.156 22.2866 28.9893C21.858 28.8227 21.0724 28.4656 20.8819 27.5846C24.7865 28.7274 27.1435 27.5846 27.1435 27.5846ZM14.0727 10.8712C15.4774 9.20461 17.2868 7.7285 18.8582 6.94282C18.9534 6.94282 18.9534 6.94283 18.9534 7.03806C18.8582 7.29995 18.5963 7.7285 18.5249 8.08563C18.5249 8.18086 18.6201 8.18086 18.6201 8.18086C19.5724 7.49042 21.3104 6.77617 22.8104 6.70474C22.9056 6.70474 22.9056 6.79998 22.9056 6.79998C22.6437 6.96664 22.477 7.22853 22.2152 7.49042C22.2152 7.49042 22.2152 7.58565 22.3104 7.58565C23.358 7.58565 24.8341 7.94278 25.7864 8.53798C25.8816 8.53798 25.7864 8.70465 25.6912 8.70465C24.2151 8.34752 21.858 8.08563 19.3343 8.70465C17.0726 9.22843 15.406 10.1093 14.1917 10.9664C14.0727 10.9426 14.0013 10.9426 14.0727 10.8712Z" fill="black"/>
<path d="M138.733 14.7759C136.567 14.7759 135.59 16.3472 135.162 17.2996C134.9 17.9186 134.9 18.0852 134.733 18.0852C134.471 18.0852 134.638 17.5615 134.829 17.0377C135.09 15.8949 134.924 15.0378 134.924 15.0378H131.876V29.6799H136.067V25.0611C136.59 25.942 137.471 26.7991 138.852 26.7991C141.9 26.7991 143.376 24.2754 143.376 20.7994C143.352 16.871 141.519 14.7759 138.733 14.7759ZM137.614 24.0135C136.662 24.0135 135.948 22.7993 135.948 21.1327C135.948 19.4661 136.638 18.2519 137.614 18.2519C138.757 18.2519 139.281 19.2995 139.281 21.1327C139.257 23.0612 138.828 24.0135 137.614 24.0135Z" fill="black"/>
<path d="M55.9039 14.7761C54.0707 14.7761 53.2136 16.2523 52.7612 17.1332C52.4994 17.6569 52.4994 18.0855 52.2375 18.0855C51.9756 18.0855 52.1422 17.7284 51.9756 16.9427C51.7137 15.8951 50.8328 14.7761 49.0233 14.7761C47.1187 14.7761 46.2378 16.4427 45.8806 17.2998C45.6188 17.9188 45.6188 18.0855 45.4521 18.0855C45.1902 18.0855 45.3569 17.5617 45.5473 17.0379C45.8092 15.8951 45.6426 15.038 45.6426 15.038H42.5951V26.5374H46.6901V20.7996C46.6901 19.6568 47.1187 18.276 47.9996 18.276C48.9519 18.276 49.1424 18.9664 49.1424 20.2759V26.5374H53.3326V20.7996C53.3326 19.7521 53.7612 18.276 54.6421 18.276C55.5944 18.276 55.7849 19.3235 55.7849 20.2759V26.466H59.7847V19.6806C59.7371 16.7046 58.6895 14.7761 55.9039 14.7761ZM126.638 14.7761C124.805 14.7761 123.948 16.2523 123.496 17.1332C123.234 17.6569 123.234 18.0855 122.972 18.0855C122.71 18.0855 122.877 17.6569 122.71 16.9427C122.353 15.8951 121.663 14.7761 119.758 14.7761C117.853 14.7761 116.972 16.4427 116.615 17.2998C116.353 17.9188 116.353 18.0855 116.187 18.0855C115.925 18.0855 116.091 17.5617 116.282 17.0379C116.544 15.8951 116.377 15.038 116.377 15.038H113.33V26.5374H117.52V20.7996C117.52 19.6568 117.948 18.276 118.829 18.276C119.782 18.276 119.972 18.9664 119.972 20.2759V26.5374H124.162V20.7996C124.162 19.7521 124.591 18.276 125.472 18.276C126.424 18.276 126.615 19.3235 126.615 20.2759V26.466H130.71V19.6806C130.472 16.7046 129.424 14.7761 126.638 14.7761ZM66.8796 14.7761C63.6655 14.7761 61.3799 15.9189 61.3799 15.9189V19.3949C61.3799 19.3949 63.9035 17.9188 65.9987 17.9188C67.6653 17.9188 67.8319 18.7997 67.7367 19.5854C67.7367 19.5854 67.3081 19.4902 65.832 19.4902C62.4274 19.4902 60.6894 21.0615 60.6894 23.49C60.6894 25.847 62.5941 26.7993 64.2607 26.7993C66.6177 26.7993 67.6653 25.228 67.9986 24.4423C68.2605 23.9185 68.2605 23.5614 68.4271 23.5614C68.689 23.5614 68.5938 23.8233 68.5938 24.3471C68.5938 25.228 68.5938 25.9184 68.7604 26.5136H71.9269V20.8473C71.8317 17.2998 70.6175 14.7761 66.8796 14.7761ZM65.832 23.8471C64.8797 24.109 64.3559 23.7519 64.3559 23.1567C64.3559 22.2758 65.3082 21.8472 66.6177 21.8472C67.2367 21.8472 67.7605 21.9424 67.7605 21.9424C67.7367 22.2758 66.8796 23.5852 65.832 23.8471ZM78.7123 11.562H82.9026V26.5374H78.7123C78.7123 26.466 78.7123 11.562 78.7123 11.562ZM87.5214 20.7996C87.5214 19.7521 88.4737 18.7997 90.2117 18.7997C92.1164 18.7997 93.6878 19.7521 94.0449 19.9425V15.9189C94.0449 15.9189 92.8307 14.7761 89.8546 14.7761C86.7119 14.7761 84.1168 16.6094 84.1168 20.6092C84.1168 24.609 86.4738 26.7993 89.8546 26.7993C92.4735 26.7993 94.1163 25.3232 94.1163 25.3232V21.4901C93.5925 21.752 92.2116 22.7043 90.2832 22.7043C88.2118 22.7995 87.5214 21.8472 87.5214 20.7996ZM102.497 14.7761C100.068 14.7761 99.1875 17.0379 99.0208 17.4665C98.8542 17.895 98.7589 18.0855 98.5923 18.0855C98.3304 18.0855 98.497 17.5617 98.5923 17.2998C98.7589 16.6808 99.2113 15.2047 99.2113 13.3C99.2113 11.9906 99.0446 11.562 99.0446 11.562H95.4734V26.5374H99.6637V20.7996C99.6637 19.8473 100.021 18.276 101.068 18.276C101.949 18.276 102.211 18.895 102.211 20.1806V26.5374H106.401V20.4425C106.235 17.4903 105.806 14.7761 102.497 14.7761ZM107.639 15.038V26.5374H111.83V15.038C111.83 15.038 111.139 15.4666 109.735 15.4666C108.33 15.3952 107.639 15.038 107.639 15.038Z" fill="black"/>
<path d="M109.735 14.7047C111.128 14.7047 112.258 13.9586 112.258 13.0382C112.258 12.1177 111.128 11.3716 109.735 11.3716C108.341 11.3716 107.211 12.1177 107.211 13.0382C107.211 13.9586 108.341 14.7047 109.735 14.7047Z" fill="black"/>
<path d="M73.2365 15.0381V26.5375H77.4029V15.0381C77.4029 15.0381 76.7125 15.4666 75.3078 15.4666C75.3078 15.3952 73.2365 15.0381 73.2365 15.0381Z" fill="black"/>
<path d="M75.3079 14.7047C76.7017 14.7047 77.8315 13.9586 77.8315 13.0382C77.8315 12.1177 76.7017 11.3716 75.3079 11.3716C73.9141 11.3716 72.7842 12.1177 72.7842 13.0382C72.7842 13.9586 73.9141 14.7047 75.3079 14.7047Z" fill="black"/>
</svg>
