<svg width="113" height="79" viewBox="0 0 113 79" fill="none" xmlns="http://www.w3.org/2000/svg">
<mask id="mask0_1327_67" style="mask-type:luminance" maskUnits="userSpaceOnUse" x="0" y="0" width="113" height="79">
<path d="M0.932129 0H112.952V78.2472H0.932129V0Z" fill="white"/>
</mask>
<g mask="url(#mask0_1327_67)">
<path fill-rule="evenodd" clip-rule="evenodd" d="M47.4451 8.56559C51.061 4.80149 56.0937 2.47054 61.6535 2.47054C69.0665 2.47054 75.4912 6.58882 78.9506 12.725C82.0214 11.3523 85.3475 10.6436 88.7111 10.6453C102.055 10.6453 112.886 21.5587 112.886 35.0255C112.886 48.4922 102.055 59.4057 88.7111 59.4057C87.0803 59.4057 85.4906 59.2418 83.9338 58.9321C80.9068 64.327 75.1205 67.9923 68.5311 67.9923C65.8484 67.9976 63.2 67.389 60.7886 66.2132C57.7204 73.4202 50.5751 78.4856 42.256 78.4856C33.5662 78.4856 26.1943 73.0083 23.3527 65.3072C22.0879 65.5741 20.7987 65.7082 19.5061 65.7075C9.169 65.7075 0.808716 57.2238 0.808716 46.8046C0.808716 39.8035 4.5729 33.7085 10.1574 30.4138C8.97265 27.6847 8.36282 24.7407 8.36592 21.7655C8.36592 9.74012 18.1264 0.0209961 30.1521 0.0209961C37.1945 0.0209961 43.4956 3.37739 47.4492 8.587" fill="#00A1E0"/>
</g>
<path fill-rule="evenodd" clip-rule="evenodd" d="M17.1339 40.6883C17.0634 40.872 17.159 40.9103 17.1816 40.9428C17.3921 41.0952 17.6058 41.2056 17.82 41.3295C18.9649 41.9349 20.0439 42.112 21.1723 42.112C23.4704 42.112 24.8995 40.8889 24.8995 38.9203V38.8816C24.8995 37.0613 23.2851 36.3983 21.7777 35.9247L21.5805 35.8609C20.4397 35.491 19.4554 35.169 19.4554 34.4195V34.3812C19.4554 33.7387 20.032 33.2651 20.9215 33.2651C21.9099 33.2651 23.0878 33.5942 23.8415 34.0105C23.8415 34.0105 24.0647 34.1547 24.1458 33.9393C24.1899 33.8227 24.5741 32.7944 24.6153 32.6791C24.659 32.5584 24.5823 32.4674 24.5037 32.4205C23.6388 31.8933 22.4445 31.535 21.209 31.535L20.9796 31.5359C18.8751 31.5359 17.4049 32.8084 17.4049 34.6287V34.6678C17.4049 36.5869 19.0275 37.2129 20.5431 37.6453L20.7869 37.7211C21.8906 38.0604 22.846 38.3553 22.846 39.1295V39.1683C22.846 39.8807 22.2242 40.412 21.2275 40.412C20.84 40.412 19.6049 40.4054 18.2664 39.5595C18.1046 39.4652 18.0123 39.3972 17.8875 39.321C17.8216 39.2811 17.6569 39.209 17.5852 39.4248L17.1322 40.685M50.7793 40.685C50.7089 40.8687 50.8044 40.907 50.8279 40.9395C51.0375 41.0919 51.2521 41.2023 51.4662 41.3262C52.6111 41.9316 53.6901 42.1087 54.8186 42.1087C57.1166 42.1087 58.5457 40.8856 58.5457 38.917V38.8783C58.5457 37.058 56.9354 36.395 55.424 35.9214L55.2267 35.8576C54.0859 35.4878 53.1016 35.1657 53.1016 34.4162V34.3779C53.1016 33.7354 53.6782 33.2618 54.5678 33.2618C55.5562 33.2618 56.7299 33.5909 57.4877 34.0072C57.4877 34.0072 57.7109 34.1514 57.7924 33.936C57.8361 33.8194 58.2208 32.7911 58.2578 32.6758C58.3019 32.5551 58.2249 32.4641 58.1466 32.4172C57.2818 31.89 56.0874 31.5317 54.8519 31.5317L54.6221 31.5326C52.5176 31.5326 51.0474 32.8051 51.0474 34.6254V34.6645C51.0474 36.5836 52.67 37.2096 54.1856 37.642L54.429 37.7178C55.5368 38.0571 56.4882 38.352 56.4882 39.1262V39.165C56.4882 39.8774 55.8663 40.4087 54.8696 40.4087C54.4813 40.4087 53.2429 40.4021 51.9085 39.5562C51.7467 39.4619 51.652 39.3968 51.5292 39.3177C51.4876 39.2914 51.2937 39.2156 51.2274 39.4215L50.7743 40.6817M73.7548 36.827C73.7548 37.9389 73.5473 38.8161 73.1412 39.438C72.7359 40.0516 72.124 40.3523 71.2715 40.3523C70.419 40.3523 69.8094 40.0541 69.41 39.4421C69.0076 38.8244 68.8045 37.9431 68.8045 36.8311C68.8045 35.7192 69.0088 34.8461 69.41 34.2325C69.8086 33.623 70.4148 33.3306 71.2715 33.3306C72.1281 33.3306 72.7376 33.6259 73.1412 34.2325C73.5497 34.8461 73.7548 35.7192 73.7548 36.8311M75.674 34.7679C75.485 34.1295 75.1921 33.5695 74.8009 33.1C74.4092 32.6305 73.9154 32.2516 73.3265 31.9798C72.7417 31.7059 72.0498 31.568 71.2673 31.568C70.4848 31.568 69.7971 31.7068 69.2081 31.9798C68.6233 32.2533 68.125 32.6305 67.7338 33.1C67.3434 33.5695 67.0501 34.1295 66.8607 34.7679C66.6733 35.4021 66.5782 36.094 66.5782 36.8311C66.5782 37.5683 66.6733 38.2602 66.8607 38.8944C67.0489 39.5327 67.3425 40.0928 67.7338 40.5623C68.1254 41.0318 68.6233 41.4065 69.2081 41.6742C69.7971 41.9411 70.489 42.077 71.2673 42.077C72.0457 42.077 72.7376 41.9411 73.3224 41.6742C73.9072 41.4074 74.4055 41.0318 74.7968 40.5623C75.1876 40.0928 75.4804 39.5327 75.6699 38.8944C75.8568 38.2602 75.952 37.5683 75.952 36.8311C75.952 36.0981 75.8568 35.4021 75.6699 34.7679M91.4432 40.0393C91.3802 39.8527 91.1982 39.9231 91.1982 39.9231C90.9194 40.0298 90.6216 40.1286 90.3045 40.1781C89.9849 40.2283 89.6291 40.2534 89.2543 40.2534C88.3277 40.2534 87.5864 39.9771 87.0592 39.4298C86.5279 38.882 86.2314 38.0007 86.2355 36.8064C86.2384 35.7192 86.5012 34.9038 86.9727 34.2778C87.4381 33.6601 88.1547 33.3388 89.1019 33.3388C89.8927 33.3388 90.498 33.4307 91.1323 33.6292C91.1323 33.6292 91.2826 33.6947 91.3547 33.4966C91.5231 33.0312 91.6475 32.6976 91.8283 32.187C91.8793 32.0408 91.7542 31.979 91.7084 31.9613C91.4597 31.8641 90.8724 31.7047 90.4276 31.6376C90.0117 31.5742 89.5298 31.5412 88.9862 31.5412C88.179 31.5412 87.4624 31.6792 86.8488 31.9526C86.2351 32.2257 85.7162 32.6033 85.3044 33.0728C84.8925 33.5423 84.5795 34.1024 84.3695 34.7407C84.1615 35.3749 84.0565 36.0709 84.0565 36.8081C84.0565 38.3977 84.4848 39.6867 85.3332 40.6298C86.1816 41.577 87.4583 42.0547 89.1221 42.0547C90.1064 42.0547 91.1154 41.8558 91.8402 41.5688C91.8402 41.5688 91.9786 41.5021 91.9185 41.3406L91.4449 40.0393M94.8013 35.7563C94.8932 35.1385 95.0624 34.6237 95.3285 34.2243C95.7267 33.6148 96.3334 33.2812 97.1859 33.2812C98.0384 33.2812 98.6026 33.6164 99.0062 34.2243C99.2739 34.6258 99.3908 35.1591 99.4345 35.7563L94.7807 35.7554L94.8013 35.7563ZM101.267 34.3972C101.104 33.7836 100.699 33.1617 100.435 32.8776C100.015 32.4287 99.6075 32.1116 99.1997 31.9386C98.6111 31.6883 97.9779 31.5599 97.3382 31.561C96.5269 31.561 95.7897 31.6981 95.1926 31.9769C94.5954 32.2578 94.093 32.64 93.6976 33.1177C93.3027 33.5954 93.0057 34.1596 92.8163 34.8062C92.6268 35.4445 92.5313 36.1446 92.5313 36.8777C92.5313 37.6272 92.6305 38.3232 92.8258 38.9533C93.023 39.5875 93.3405 40.1435 93.7689 40.6047C94.1972 41.0701 94.7449 41.4325 95.4039 41.6878C96.0587 41.9411 96.8535 42.0725 97.7637 42.0696C99.6416 42.0634 100.63 41.6454 101.034 41.4189C101.106 41.3785 101.174 41.3089 101.089 41.1084L100.665 39.9182C100.6 39.7407 100.42 39.8049 100.42 39.8049C99.9546 39.9787 99.2957 40.2909 97.7513 40.2868C96.7423 40.2851 95.9969 39.9874 95.5274 39.5208C95.0497 39.0431 94.8108 38.3471 94.7737 37.3587L101.281 37.3636C101.281 37.3636 101.452 37.362 101.47 37.1948C101.477 37.1256 101.693 35.8605 101.276 34.3985L101.267 34.3972ZM42.7864 35.7563C42.8782 35.1385 43.0479 34.6237 43.3135 34.2243C43.7122 33.6148 44.3184 33.2812 45.1709 33.2812C46.0234 33.2812 46.5876 33.6164 46.9912 34.2243C47.2585 34.6258 47.3755 35.1591 47.4195 35.7563L42.7658 35.7554L42.7864 35.7563ZM49.2522 34.3972C49.0891 33.7836 48.6839 33.1617 48.4203 32.8776C48.0002 32.4287 47.5925 32.1116 47.1848 31.9386C46.5961 31.6883 45.9629 31.5599 45.3233 31.561C44.5119 31.561 43.7748 31.6981 43.1776 31.9769C42.5804 32.2578 42.078 32.64 41.6826 33.1177C41.2885 33.5954 40.9907 34.1596 40.8013 34.8062C40.6123 35.4445 40.5171 36.1446 40.5171 36.8777C40.5171 37.6272 40.6156 38.3232 40.812 38.9533C41.0089 39.5875 41.3268 40.1435 41.751 40.6047C42.1793 41.0701 42.727 41.4325 43.386 41.6878C44.0408 41.9411 44.8315 42.0725 45.7458 42.0696C47.6238 42.0634 48.6122 41.6454 49.0158 41.4189C49.0875 41.3785 49.1558 41.3089 49.0706 41.1084L48.6464 39.9182C48.5809 39.7407 48.4013 39.8049 48.4013 39.8049C47.936 39.9787 47.277 40.2909 45.7326 40.2868C44.7278 40.2851 43.9782 39.9874 43.5087 39.5208C43.031 39.0431 42.7921 38.3471 42.7551 37.3587L49.2621 37.3636C49.2621 37.3636 49.4334 37.362 49.4511 37.1948C49.4581 37.1256 49.6739 35.8605 49.2567 34.3985L49.2522 34.3972ZM28.7427 39.9981C28.4878 39.7946 28.4524 39.7448 28.368 39.6126C28.239 39.4137 28.1732 39.1308 28.1732 38.7684C28.1732 38.2 28.3626 37.7882 28.7538 37.5123C28.7497 37.5131 29.3139 37.0263 30.6401 37.0428C31.2303 37.0534 31.8192 37.1036 32.4027 37.1931V40.1459H32.4035C32.4035 40.1459 31.5799 40.3234 30.6491 40.3794C29.3271 40.4589 28.7423 39.9989 28.7464 40.0001L28.7427 39.9981ZM31.3291 35.4268C31.0655 35.4074 30.7237 35.398 30.3159 35.398C29.76 35.398 29.2205 35.4672 28.718 35.6031C28.2115 35.7398 27.7543 35.9515 27.3631 36.2332C26.9707 36.513 26.6481 36.8794 26.42 37.3039C26.1897 37.7322 26.0724 38.2346 26.0724 38.803C26.0724 39.3795 26.1724 39.8778 26.3701 40.2855C26.5638 40.6899 26.8555 41.0396 27.2185 41.3028C27.5797 41.5655 28.0257 41.7599 28.5405 41.8752C29.0512 41.9917 29.6278 42.0506 30.262 42.0506C30.9292 42.0506 31.5922 41.9946 32.2347 41.8863C32.7819 41.7919 33.327 41.6859 33.8697 41.5684C34.0863 41.5185 34.3268 41.4531 34.3268 41.4531C34.4874 41.4123 34.4751 41.2406 34.4751 41.2406L34.4714 35.3103C34.4714 34.0089 34.1238 33.0411 33.4377 32.4439C32.754 31.8468 31.7532 31.5462 30.456 31.5462C29.97 31.5462 29.1834 31.612 28.7139 31.7064C28.7139 31.7064 27.2972 31.9815 26.7124 32.4394C26.7124 32.4394 26.5839 32.5185 26.6539 32.6976L27.1151 33.9331C27.1724 34.0933 27.3285 34.0385 27.3285 34.0385C27.3285 34.0385 27.3775 34.0192 27.4351 33.985C28.683 33.3055 30.2645 33.3261 30.2645 33.3261C30.9646 33.3261 31.5082 33.4681 31.8706 33.7461C32.2252 34.0184 32.406 34.4298 32.406 35.2946V35.5693C31.85 35.4886 31.3352 35.442 31.3352 35.442L31.3291 35.4268ZM83.6323 32.0786C83.6417 32.0569 83.6466 32.0335 83.6467 32.0099C83.6469 31.9862 83.6422 31.9628 83.6331 31.941C83.624 31.9192 83.6106 31.8994 83.5937 31.8828C83.5768 31.8663 83.5567 31.8533 83.5347 31.8447C83.4239 31.8027 82.8717 31.6862 82.4475 31.6598C81.632 31.6087 81.179 31.7463 80.7713 31.9292C80.3685 32.1108 79.9229 32.4028 79.6758 32.7405L79.675 31.9497C79.675 31.841 79.598 31.7533 79.4884 31.7533H77.8246C77.7167 31.7533 77.6384 31.841 77.6384 31.9497V41.6277C77.6386 41.68 77.6594 41.7301 77.6964 41.7671C77.7333 41.804 77.7834 41.8248 77.8357 41.8249H79.5407C79.593 41.8248 79.643 41.804 79.6799 41.767C79.7169 41.73 79.7376 41.6799 79.7376 41.6277V36.7681C79.7376 36.1174 79.8092 35.4709 79.9522 35.0632C80.093 34.66 80.2845 34.3383 80.5205 34.1077C80.7456 33.885 81.0211 33.7197 81.3236 33.6259C81.6074 33.5444 81.9013 33.5031 82.1967 33.5032C82.5364 33.5032 82.9091 33.5905 82.9091 33.5905C83.0343 33.6045 83.1039 33.5279 83.1464 33.415C83.258 33.1181 83.5747 32.229 83.6364 32.0519" fill="#FFFFFE"/>
<path fill-rule="evenodd" clip-rule="evenodd" d="M67.708 27.6121C67.4972 27.5485 67.2828 27.4976 67.0659 27.4598C66.7742 27.4111 66.4787 27.3882 66.1829 27.3914C65.0079 27.3914 64.0817 27.7233 63.4314 28.379C62.7857 29.0297 62.3463 30.0209 62.1259 31.3252L62.0464 31.7654H60.5716C60.5716 31.7654 60.3917 31.758 60.3538 31.9545L60.1116 33.3052C60.0947 33.4346 60.1503 33.5153 60.3233 33.5145H61.759L60.3023 41.6452C60.1882 42.3 60.0577 42.8386 59.9131 43.2468C59.7706 43.6495 59.6314 43.9514 59.4601 44.1705C59.2941 44.3826 59.1368 44.5387 58.8654 44.6297C58.6414 44.705 58.3836 44.7396 58.101 44.7396C57.9437 44.7396 57.7345 44.7133 57.5801 44.6824C57.4256 44.6519 57.3453 44.6173 57.2296 44.5687C57.2296 44.5687 57.0611 44.5045 56.9948 44.6733C56.9409 44.8113 56.5583 45.8635 56.513 45.9936C56.4669 46.1221 56.5315 46.2234 56.6131 46.2527C56.8042 46.3211 56.9462 46.3647 57.2065 46.4261C57.5681 46.5113 57.8729 46.5167 58.1583 46.5167C58.7563 46.5167 59.3011 46.4327 59.7529 46.2696C60.2076 46.1053 60.6034 45.819 60.9534 45.4315C61.3319 45.0135 61.5699 44.5757 61.7977 43.9786C62.023 43.3868 62.2149 42.6521 62.3685 41.7959L63.8322 33.5145H65.9721C65.9721 33.5145 66.1524 33.521 66.1899 33.3254L66.4321 31.9746C66.449 31.8453 66.3938 31.7646 66.22 31.7654H64.1431C64.1534 31.7185 64.2477 30.9879 64.4862 30.3001C64.5879 30.0065 64.7794 29.7697 64.9416 29.607C65.0931 29.4521 65.2798 29.336 65.4857 29.2685C65.7114 29.1987 65.9467 29.1648 66.1829 29.168C66.3785 29.168 66.5705 29.1915 66.7167 29.222C66.9181 29.2648 66.9963 29.2875 67.049 29.3031C67.2607 29.3678 67.2891 29.3052 67.3307 29.2026L67.8274 27.8387C67.8785 27.692 67.7541 27.6303 67.708 27.6121ZM38.6842 41.6625C38.6842 41.7712 38.6067 41.8597 38.498 41.8597H36.7753C36.6662 41.8597 36.5887 41.7712 36.5887 41.6625V27.7971C36.5887 27.6887 36.6662 27.601 36.7753 27.601H38.498C38.6067 27.601 38.6842 27.6887 38.6842 27.7971V41.6625Z" fill="#FFFFFE"/>
</svg>
